<?xml version="1.0" encoding="UTF-8" standalone="no"?>
<!-- Created with Inkscape (http://www.inkscape.org/) -->
<svg
   xmlns:dc="http://purl.org/dc/elements/1.1/"
   xmlns:cc="http://web.resource.org/cc/"
   xmlns:rdf="http://www.w3.org/1999/02/22-rdf-syntax-ns#"
   xmlns:svg="http://www.w3.org/2000/svg"
   xmlns="http://www.w3.org/2000/svg"
   xmlns:sodipodi="http://sodipodi.sourceforge.net/DTD/sodipodi-0.dtd"
   xmlns:inkscape="http://www.inkscape.org/namespaces/inkscape"
   width="922.71973"
   height="462.12851"
   id="svg2"
   sodipodi:version="0.32"
   inkscape:version="0.44"
   version="1.0"
   sodipodi:docbase="C:\Documents and Settings\ryan\Desktop"
   sodipodi:docname="heartsframe.svg">
  <defs
     id="defs4" />
  <sodipodi:namedview
     id="base"
     pagecolor="#ffffff"
     bordercolor="#666666"
     borderopacity="1.0"
     gridtolerance="10000"
     guidetolerance="10"
     objecttolerance="10"
     inkscape:pageopacity="0.0"
     inkscape:pageshadow="2"
     inkscape:zoom="1"
     inkscape:cx="527.54262"
     inkscape:cy="339.54909"
     inkscape:document-units="px"
     inkscape:current-layer="layer1"
     width="1204.22px"
     inkscape:window-width="1280"
     inkscape:window-height="968"
     inkscape:window-x="-4"
     inkscape:window-y="-4" />
  <metadata
     id="metadata7">
    <rdf:RDF>
      <cc:Work
         rdf:about="">
        <dc:format>image/svg+xml</dc:format>
        <dc:type
           rdf:resource="http://purl.org/dc/dcmitype/StillImage" />
      </cc:Work>
    </rdf:RDF>
  </metadata>
  <g
     inkscape:label="Layer 1"
     inkscape:groupmode="layer"
     id="layer1"
     transform="translate(-346.8816,-134.9672)">
    <g
       id="g1907"
       transform="matrix(1.047303,0,0,1.047303,-66.902,-19.18174)">
      <path
         style="fill:#a80b0b"
         d="M 442.25644,565.66487 C 442.08572,565.21527 442.02132,476.76438 442.11336,369.1074 L 442.28068,173.36742 L 834.74102,173.36742 L 1227.2012,173.36742 L 1227.2012,369.76096 L 1227.2012,566.15451 L 834.8841,566.31844 C 521.37232,566.44943 442.5045,566.31816 442.25644,565.66487 z M 464.1748,553.18849 C 467.25769,550.80172 467.79863,550.05475 467.97492,547.94094 C 468.08798,546.58536 467.83141,545.05566 467.40473,544.54154 C 466.28319,543.19016 463.26289,543.39402 461.88735,544.91396 C 461.23676,545.63286 460.20741,546.22105 459.59991,546.22105 C 458.99244,546.22105 457.96309,545.63286 457.31247,544.91396 C 455.98982,543.45245 452.91109,543.17198 451.93166,544.42377 C 450.8448,545.81292 450.50694,548.24681 451.19677,549.71799 C 451.94745,551.31897 458.11998,555.88798 459.59991,555.93817 C 460.1391,555.95648 462.19779,554.7191 464.1748,553.18849 z M 547.82997,553.18849 C 550.91284,550.80172 551.45377,550.05475 551.63009,547.94094 C 551.74312,546.58536 551.48655,545.05566 551.0599,544.54154 C 549.93834,543.19016 546.91803,543.39402 545.5425,544.91396 C 544.8919,545.63286 543.86255,546.22105 543.25508,546.22105 C 542.64758,546.22105 541.61824,545.63286 540.96764,544.91396 C 539.64496,543.45245 536.56623,543.17198 535.5868,544.42377 C 534.49995,545.81292 534.16209,548.24681 534.85192,549.71799 C 535.6026,551.31897 541.77512,555.88798 543.25508,555.93817 C 543.79424,555.95648 545.85297,554.7191 547.82997,553.18849 z M 668.08423,553.18849 C 671.16713,550.80172 671.70807,550.05475 671.88436,547.94094 C 671.99742,546.58536 671.74084,545.05566 671.31416,544.54154 C 670.19263,543.19016 667.17232,543.39402 665.79679,544.91396 C 665.1462,545.63286 664.11685,546.22105 663.50935,546.22105 C 662.90188,546.22105 661.8725,545.63286 661.22191,544.91396 C 659.89926,543.45245 656.82053,543.17198 655.8411,544.42377 C 654.75424,545.81292 654.41638,548.24681 655.10621,549.71799 C 655.85689,551.31897 662.02942,555.88798 663.50935,555.93817 C 664.04854,555.95648 666.10723,554.7191 668.08423,553.18849 z M 788.33853,553.18849 C 791.42143,550.80172 791.96236,550.05475 792.13865,547.94094 C 792.25171,546.58536 791.99511,545.05566 791.56846,544.54154 C 790.4469,543.19016 787.42659,543.39402 786.05109,544.91396 C 785.40049,545.63286 784.37111,546.22105 783.76364,546.22105 C 783.15614,546.22105 782.1268,545.63286 781.4762,544.91396 C 780.15356,543.45245 777.07482,543.17198 776.09539,544.42377 C 775.00854,545.81292 774.67068,548.24681 775.36048,549.71799 C 776.11119,551.31897 782.28371,555.88798 783.76364,555.93817 C 784.30283,555.95648 786.36152,554.7191 788.33853,553.18849 z M 923.62458,553.18849 C 926.70742,550.80172 927.24835,550.05475 927.4247,547.94094 C 927.53779,546.58536 927.28119,545.05566 926.85445,544.54154 C 925.73298,543.19016 922.71264,543.39402 921.33711,544.91396 C 920.68654,545.63286 919.6572,546.22105 919.04963,546.22105 C 918.44216,546.22105 917.41282,545.63286 916.76216,544.91396 C 915.43958,543.45245 912.36087,543.17198 911.38138,544.42377 C 910.29456,545.81292 909.95673,548.24681 910.64659,549.71799 C 911.39724,551.31897 917.56976,555.88798 919.04963,555.93817 C 919.58891,555.95648 921.64761,554.7191 923.62458,553.18849 z M 1033.4219,553.18849 C 1036.5048,550.80172 1037.0458,550.05475 1037.2221,547.94094 C 1037.3352,546.58536 1037.0786,545.05566 1036.6519,544.54154 C 1035.5303,543.19016 1032.51,543.39402 1031.1345,544.91396 C 1030.4839,545.63286 1029.4546,546.22105 1028.847,546.22105 C 1028.2395,546.22105 1027.2102,545.63286 1026.5596,544.91396 C 1025.237,543.45245 1022.1582,543.17198 1021.1788,544.42377 C 1020.0919,545.81292 1019.7541,548.24681 1020.444,549.71799 C 1021.1946,551.31897 1027.3671,555.88798 1028.847,555.93817 C 1029.3863,555.95648 1031.445,554.7191 1033.4219,553.18849 z M 1132.7624,553.18849 C 1135.8454,550.80172 1136.3863,550.05475 1136.5626,547.94094 C 1136.6756,546.58536 1136.4191,545.05566 1135.9924,544.54154 C 1134.8708,543.19016 1131.8506,543.39402 1130.475,544.91396 C 1129.8244,545.63286 1128.7951,546.22105 1128.1875,546.22105 C 1127.5801,546.22105 1126.5507,545.63286 1125.9001,544.91396 C 1124.5775,543.45245 1121.4988,543.17198 1120.5193,544.42377 C 1119.4325,545.81292 1119.0946,548.24681 1119.7844,549.71799 C 1120.535,551.31897 1126.7077,555.88798 1128.1875,555.93817 C 1128.7268,555.95648 1130.7855,554.7191 1132.7624,553.18849 z M 1213.8034,553.18849 C 1216.8863,550.80172 1217.4272,550.05475 1217.6036,547.94094 C 1217.7165,546.58536 1217.46,545.05566 1217.0333,544.54154 C 1215.9118,543.19016 1212.8915,543.39402 1211.5159,544.91396 C 1210.8653,545.63286 1209.836,546.22105 1209.2284,546.22105 C 1208.621,546.22105 1207.5916,545.63286 1206.9411,544.91396 C 1205.6184,543.45245 1202.5397,543.17198 1201.5603,544.42377 C 1200.4735,545.81292 1200.1355,548.24681 1200.8253,549.71799 C 1201.576,551.31897 1207.7486,555.88798 1209.2284,555.93817 C 1209.7677,555.95648 1211.8264,554.7191 1213.8034,553.18849 z M 1194.5235,368.78062 L 1194.5235,204.08453 L 833.7607,204.08453 L 472.99782,204.08453 L 472.83037,368.12709 C 472.73828,458.35046 472.80267,532.5375 472.97349,532.98713 C 473.22161,533.64039 545.7501,533.77172 833.90376,533.6407 L 1194.5235,533.47671 L 1194.5235,368.78062 z M 462.21414,462.34423 C 465.29703,459.95747 465.83797,459.2105 466.01426,457.09665 C 466.12732,455.7411 465.87074,454.21138 465.44406,453.69729 C 464.3225,452.3459 461.30219,452.54974 459.92669,454.06967 C 459.2761,454.78858 458.24675,455.3768 457.63925,455.3768 C 457.03175,455.3768 456.0024,454.78858 455.35181,454.06967 C 454.02916,452.60817 450.95043,452.32772 449.971,453.57951 C 448.88411,454.96864 448.54628,457.40256 449.23611,458.87374 C 449.98679,460.47471 456.15932,465.04372 457.63925,465.09392 C 458.17844,465.11219 460.23713,463.87484 462.21414,462.34423 z M 1215.7641,462.34423 C 1218.847,459.95747 1219.3878,459.2105 1219.5642,457.09665 C 1219.6772,455.7411 1219.4207,454.21138 1218.9939,453.69729 C 1217.8724,452.3459 1214.8522,452.54974 1213.4766,454.06967 C 1212.826,454.78858 1211.7966,455.3768 1211.1891,455.3768 C 1210.5818,455.3768 1209.5523,454.78858 1208.9017,454.06967 C 1207.5791,452.60817 1204.5003,452.32772 1203.5209,453.57951 C 1202.4341,454.96864 1202.0962,457.40256 1202.786,458.87374 C 1203.5366,460.47471 1209.7093,465.04372 1211.1891,465.09392 C 1211.7284,465.11219 1213.7871,463.87484 1215.7641,462.34423 z M 462.21414,368.88575 C 465.29703,366.49896 465.83797,365.75199 466.01426,363.63817 C 466.12732,362.28259 465.87074,360.7529 465.44406,360.23878 C 464.3225,358.88739 461.30219,359.09126 459.92669,360.61119 C 459.2761,361.3301 458.24675,361.91829 457.63925,361.91829 C 457.03175,361.91829 456.0024,361.3301 455.35181,360.61119 C 454.02916,359.14969 450.95043,358.86921 449.971,360.121 C 448.88411,361.51016 448.54628,363.94405 449.23611,365.41523 C 449.98679,367.0162 456.15932,371.58521 457.63925,371.63541 C 458.17844,371.65368 460.23713,370.41633 462.21414,368.88575 z M 1215.7641,368.88575 C 1218.847,366.49896 1219.3878,365.75199 1219.5642,363.63817 C 1219.6772,362.28259 1219.4207,360.7529 1218.9939,360.23878 C 1217.8724,358.88739 1214.8522,359.09126 1213.4766,360.61119 C 1212.826,361.3301 1211.7966,361.91829 1211.1891,361.91829 C 1210.5818,361.91829 1209.5523,361.3301 1208.9017,360.61119 C 1207.5791,359.14969 1204.5003,358.86921 1203.5209,360.121 C 1202.4341,361.51016 1202.0962,363.94405 1202.786,365.41523 C 1203.5366,367.0162 1209.7093,371.58521 1211.1891,371.63541 C 1211.7284,371.65368 1213.7871,370.41633 1215.7641,368.88575 z M 462.21414,264.97034 C 465.29703,262.58358 465.83797,261.83661 466.01426,259.72279 C 466.12732,258.36721 465.87074,256.83749 465.44406,256.3234 C 464.3225,254.97201 461.30219,255.17588 459.92669,256.69578 C 459.2761,257.41469 458.24675,258.00291 457.63925,258.00291 C 457.03175,258.00291 456.0024,257.41469 455.35181,256.69578 C 454.02916,255.23428 450.95043,254.95383 449.971,256.20562 C 448.88411,257.59474 448.54628,260.02867 449.23611,261.49985 C 449.98679,263.10082 456.15932,267.66983 457.63925,267.72003 C 458.17844,267.7383 460.23713,266.50095 462.21414,264.97034 z M 1215.7641,264.97055 C 1219.5876,262.01054 1220.5642,259.55896 1219.048,256.72599 C 1218.1137,254.98027 1215.0442,254.96366 1213.4766,256.69578 C 1212.826,257.41469 1211.7966,258.00291 1211.1891,258.00291 C 1210.5818,258.00291 1209.5523,257.41469 1208.9017,256.69578 C 1207.5791,255.23428 1204.5003,254.95383 1203.5209,256.20562 C 1202.4341,257.59474 1202.0962,260.02867 1202.786,261.49985 C 1203.5366,263.10082 1209.7093,267.66983 1211.1891,267.72003 C 1211.7284,267.7383 1213.7871,266.50105 1215.7641,264.97055 z M 464.1748,191.7721 C 467.25769,189.38531 467.79863,188.63833 467.97492,186.52452 C 468.08798,185.16894 467.83141,183.63924 467.40473,183.12512 C 466.28319,181.77377 463.26289,181.97761 461.88735,183.49754 C 461.23676,184.21645 460.20741,184.80464 459.59991,184.80464 C 458.99244,184.80464 457.96309,184.21645 457.31247,183.49754 C 455.98982,182.03603 452.91109,181.75556 451.93166,183.00738 C 450.8448,184.3965 450.50694,186.83043 451.19677,188.3016 C 451.94745,189.90255 458.11998,194.47159 459.59991,194.52175 C 460.1391,194.54006 462.19779,193.30268 464.1748,191.7721 z M 547.82997,191.7721 C 550.91284,189.38531 551.45377,188.63833 551.63009,186.52452 C 551.74312,185.16894 551.48655,183.63924 551.0599,183.12512 C 549.93834,181.77377 546.91803,181.97761 545.5425,183.49754 C 544.8919,184.21645 543.86255,184.80464 543.25508,184.80464 C 542.64758,184.80464 541.61824,184.21645 540.96764,183.49754 C 539.64496,182.03603 536.56623,181.75556 535.5868,183.00738 C 534.49995,184.3965 534.16209,186.83043 534.85192,188.3016 C 535.6026,189.90255 541.77512,194.47159 543.25508,194.52175 C 543.79424,194.54006 545.85297,193.30268 547.82997,191.7721 z M 668.08423,191.7721 C 671.16713,189.38531 671.70807,188.63833 671.88436,186.52452 C 671.99742,185.16894 671.74084,183.63924 671.31416,183.12512 C 670.19263,181.77377 667.17232,181.97761 665.79679,183.49754 C 665.1462,184.21645 664.11685,184.80464 663.50935,184.80464 C 662.90188,184.80464 661.8725,184.21645 661.22191,183.49754 C 659.89926,182.03603 656.82053,181.75556 655.8411,183.00738 C 654.75424,184.3965 654.41638,186.83043 655.10621,188.3016 C 655.85689,189.90255 662.02942,194.47159 663.50935,194.52175 C 664.04854,194.54006 666.10723,193.30268 668.08423,191.7721 z M 788.33853,191.7721 C 791.42143,189.38531 791.96236,188.63833 792.13865,186.52452 C 792.25171,185.16894 791.99511,183.63924 791.56846,183.12512 C 790.4469,181.77377 787.42659,181.97761 786.05109,183.49754 C 785.40049,184.21645 784.37111,184.80464 783.76364,184.80464 C 783.15614,184.80464 782.1268,184.21645 781.4762,183.49754 C 780.15356,182.03603 777.07482,181.75556 776.09539,183.00738 C 775.00854,184.3965 774.67068,186.83043 775.36048,188.3016 C 776.11119,189.90255 782.28371,194.47159 783.76364,194.52175 C 784.30283,194.54006 786.36152,193.30268 788.33853,191.7721 z M 923.62458,191.7721 C 926.70742,189.38531 927.24835,188.63833 927.4247,186.52452 C 927.53779,185.16894 927.28119,183.63924 926.85445,183.12512 C 925.73298,181.77377 922.71264,181.97761 921.33711,183.49754 C 920.68654,184.21645 919.6572,184.80464 919.04963,184.80464 C 918.44216,184.80464 917.41282,184.21645 916.76216,183.49754 C 915.43958,182.03603 912.36087,181.75556 911.38138,183.00738 C 910.29456,184.3965 909.95673,186.83043 910.64659,188.3016 C 911.39724,189.90255 917.56976,194.47159 919.04963,194.52175 C 919.58891,194.54006 921.64761,193.30268 923.62458,191.7721 z M 1033.4219,191.7721 C 1036.5048,189.38531 1037.0458,188.63833 1037.2221,186.52452 C 1037.3352,185.16894 1037.0786,183.63924 1036.6519,183.12512 C 1035.5303,181.77377 1032.51,181.97761 1031.1345,183.49754 C 1030.4839,184.21645 1029.4546,184.80464 1028.847,184.80464 C 1028.2395,184.80464 1027.2102,184.21645 1026.5596,183.49754 C 1025.237,182.03603 1022.1582,181.75556 1021.1788,183.00738 C 1020.0919,184.3965 1019.7541,186.83043 1020.444,188.3016 C 1021.1946,189.90255 1027.3671,194.47159 1028.847,194.52175 C 1029.3863,194.54006 1031.445,193.30268 1033.4219,191.7721 z M 1132.7624,191.7721 C 1135.8454,189.38531 1136.3863,188.63833 1136.5626,186.52452 C 1136.6756,185.16894 1136.4191,183.63924 1135.9924,183.12512 C 1134.8708,181.77377 1131.8506,181.97761 1130.475,183.49754 C 1129.8244,184.21645 1128.7951,184.80464 1128.1875,184.80464 C 1127.5801,184.80464 1126.5507,184.21645 1125.9001,183.49754 C 1124.5775,182.03603 1121.4988,181.75556 1120.5193,183.00738 C 1119.4325,184.3965 1119.0946,186.83043 1119.7844,188.3016 C 1120.535,189.90255 1126.7077,194.47159 1128.1875,194.52175 C 1128.7268,194.54006 1130.7855,193.30268 1132.7624,191.7721 z M 1213.8034,191.7721 C 1216.8863,189.38531 1217.4272,188.63833 1217.6036,186.52452 C 1217.7165,185.16894 1217.46,183.63924 1217.0333,183.12512 C 1215.9118,181.77377 1212.8915,181.97761 1211.5159,183.49754 C 1210.8653,184.21645 1209.836,184.80464 1209.2284,184.80464 C 1208.621,184.80464 1207.5916,184.21645 1206.9411,183.49754 C 1205.6184,182.03603 1202.5397,181.75556 1201.5603,183.00738 C 1200.4735,184.3965 1200.1355,186.83043 1200.8253,188.3016 C 1201.576,189.90255 1207.7486,194.47159 1209.2284,194.52175 C 1209.7677,194.54006 1211.8264,193.30268 1213.8034,191.7721 z "
         id="path1886" />
      <path
         style="fill:#130a0a"
         d="M 442.73818,565.69701 C 441.59568,564.55454 441.59568,174.96739 442.73818,173.82489 C 443.8819,172.6812 1225.6001,172.6812 1226.7438,173.82489 C 1227.8863,174.96739 1227.8863,564.55454 1226.7438,565.69701 C 1226.1356,566.30524 1138.1507,566.48129 834.74102,566.48129 C 531.33132,566.48129 443.34642,566.30524 442.73818,565.69701 z M 1223.2799,369.76096 L 1223.2799,177.28874 L 834.74102,177.28874 L 446.20203,177.28874 L 446.03468,369.1074 C 445.94265,474.60766 446.00701,561.29394 446.17776,561.74355 C 446.42583,562.39681 524.50942,562.52811 834.8841,562.39711 L 1223.2799,562.23319 L 1223.2799,369.76096 z M 458.29281,558.0268 C 458.29281,557.69031 456.55362,556.19502 454.42793,554.70395 C 450.19372,551.7338 448.78424,549.3423 449.45856,546.2722 C 449.93302,544.11198 452.55177,541.64617 454.37146,541.64617 C 454.99344,541.64617 456.2501,542.23436 457.16403,542.95326 C 458.07796,543.6722 459.17412,544.26039 459.59991,544.26039 C 460.0257,544.26039 461.12186,543.6722 462.03579,542.95326 C 462.94975,542.23436 464.22967,541.64617 464.88005,541.64617 C 466.88341,541.64617 469.41742,544.39904 469.83642,547.03059 C 470.25208,549.64138 469.83424,550.18244 462.51199,556.51455 C 460.10687,558.59442 458.29281,559.24465 458.29281,558.0268 z M 464.17783,554.00864 C 469.96316,549.95048 470.81471,546.07179 466.53585,543.26817 C 465.20479,542.39602 464.64604,542.34861 463.40168,543.00223 C 462.5688,543.43972 461.65218,544.19588 461.36472,544.68257 C 461.07727,545.16927 460.2831,545.56749 459.59991,545.56749 C 458.91672,545.56749 458.12258,545.16927 457.8351,544.68257 C 457.54764,544.19588 456.63102,543.43972 455.79814,543.00223 C 452.7722,541.41283 449.05407,545.61625 450.26154,549.2615 C 450.87933,551.12658 457.72795,556.61019 459.49603,556.65549 C 459.97808,556.66785 462.08489,555.47675 464.17783,554.00864 z M 541.94796,558.0268 C 541.94796,557.69031 540.20876,556.19502 538.0831,554.70395 C 533.84889,551.7338 532.43942,549.3423 533.11373,546.2722 C 533.58819,544.11198 536.20691,541.64617 538.02663,541.64617 C 538.64858,541.64617 539.90524,542.23436 540.81917,542.95326 C 541.73313,543.6722 542.82929,544.26039 543.25508,544.26039 C 543.68085,544.26039 544.77701,543.6722 545.69097,542.95326 C 546.6049,542.23436 547.88482,541.64617 548.5352,541.64617 C 550.53855,541.64617 553.07259,544.39904 553.49156,547.03059 C 553.90722,549.64138 553.48939,550.18244 546.16714,556.51455 C 543.76204,558.59442 541.94796,559.24465 541.94796,558.0268 z M 547.833,554.00864 C 553.6183,549.95048 554.46985,546.07179 550.19099,543.26817 C 548.85993,542.39602 548.30121,542.34861 547.05686,543.00223 C 546.22397,543.43972 545.30732,544.19588 545.01987,544.68257 C 544.73241,545.16927 543.93824,545.56749 543.25508,545.56749 C 542.57189,545.56749 541.77772,545.16927 541.49027,544.68257 C 541.20282,544.19588 540.28616,543.43972 539.45328,543.00223 C 536.42734,541.41283 532.70921,545.61625 533.91669,549.2615 C 534.5345,551.12658 541.38312,556.61019 543.15118,556.65549 C 543.63322,556.66785 545.74003,555.47675 547.833,554.00864 z M 662.20225,558.0268 C 662.20225,557.69031 660.46306,556.19502 658.33737,554.70395 C 654.10316,551.7338 652.69371,549.3423 653.368,546.2722 C 653.84245,544.11198 656.46121,541.64617 658.2809,541.64617 C 658.90288,541.64617 660.1595,542.23436 661.07347,542.95326 C 661.9874,543.6722 663.08356,544.26039 663.50935,544.26039 C 663.93514,544.26039 665.0313,543.6722 665.94523,542.95326 C 666.85919,542.23436 668.13911,541.64617 668.78949,541.64617 C 670.79285,541.64617 673.32686,544.39904 673.74585,547.03059 C 674.16152,549.64138 673.74368,550.18244 666.42143,556.51455 C 664.01634,558.59442 662.20225,559.24465 662.20225,558.0268 z M 668.08726,554.00864 C 673.87259,549.95048 674.72415,546.07179 670.44529,543.26817 C 669.11422,542.39602 668.55548,542.34861 667.31112,543.00223 C 666.47824,543.43972 665.56161,544.19588 665.27416,544.68257 C 664.98671,545.16927 664.19254,545.56749 663.50935,545.56749 C 662.82616,545.56749 662.03199,545.16927 661.74454,544.68257 C 661.45711,544.19588 660.54046,543.43972 659.70757,543.00223 C 656.68163,541.41283 652.96351,545.61625 654.17098,549.2615 C 654.78877,551.12658 661.63738,556.61019 663.40547,556.65549 C 663.88752,556.66785 665.99432,555.47675 668.08726,554.00864 z M 782.45652,558.0268 C 782.45652,557.69031 780.71735,556.19502 778.59166,554.70395 C 774.35745,551.7338 772.94798,549.3423 773.62229,546.2722 C 774.09675,544.11198 776.7155,541.64617 778.53519,541.64617 C 779.15714,541.64617 780.4138,542.23436 781.32776,542.95326 C 782.24169,543.6722 783.33785,544.26039 783.76364,544.26039 C 784.18944,544.26039 785.2856,543.6722 786.19953,542.95326 C 787.11349,542.23436 788.39338,541.64617 789.04379,541.64617 C 791.04714,541.64617 793.58115,544.39904 794.00012,547.03059 C 794.41581,549.64138 793.99798,550.18244 786.6757,556.51455 C 784.2706,558.59442 782.45652,559.24465 782.45652,558.0268 z M 788.34156,554.00864 C 794.12689,549.95048 794.97841,546.07179 790.69955,543.26817 C 789.36852,542.39602 788.80977,542.34861 787.56542,543.00223 C 786.73253,543.43972 785.81591,544.19588 785.52846,544.68257 C 785.241,545.16927 784.44683,545.56749 783.76364,545.56749 C 783.08045,545.56749 782.28628,545.16927 781.99883,544.68257 C 781.71138,544.19588 780.79475,543.43972 779.96187,543.00223 C 776.93593,541.41283 773.2178,545.61625 774.42528,549.2615 C 775.04306,551.12658 781.89168,556.61019 783.65977,556.65549 C 784.14181,556.66785 786.24862,555.47675 788.34156,554.00864 z M 917.74257,558.0268 C 917.74257,557.69031 916.00337,556.19502 913.87771,554.70395 C 909.6435,551.7338 908.23406,549.3423 908.90841,546.2722 C 909.38277,544.11198 912.00149,541.64617 913.82115,541.64617 C 914.44316,541.64617 915.69988,542.23436 916.61381,542.95326 C 917.52774,543.6722 918.62396,544.26039 919.04963,544.26039 C 919.47549,544.26039 920.57162,543.6722 921.48555,542.95326 C 922.39957,542.23436 923.67949,541.64617 924.32981,541.64617 C 926.33317,541.64617 928.86717,544.39904 929.28614,547.03059 C 929.70183,549.64138 929.284,550.18244 921.96175,556.51455 C 919.55672,558.59442 917.74257,559.24465 917.74257,558.0268 z M 923.62764,554.00864 C 925.72058,552.54052 927.76575,550.53591 928.1725,549.55394 C 929.68194,545.90976 925.98419,541.35676 922.8515,543.00223 C 922.01855,543.43972 921.10199,544.19588 920.81451,544.68257 C 920.52702,545.16927 919.73289,545.56749 919.04963,545.56749 C 918.36647,545.56749 917.57234,545.16927 917.28485,544.68257 C 916.9974,544.19588 916.08081,543.43972 915.24795,543.00223 C 912.22198,541.41283 908.50385,545.61625 909.7113,549.2615 C 910.32917,551.12658 917.17776,556.61019 918.94579,556.65549 C 919.42783,556.66785 921.53467,555.47675 923.62764,554.00864 z M 1027.5399,558.0268 C 1027.5399,557.69031 1025.8007,556.19502 1023.6752,554.70395 C 1019.4409,551.7338 1018.0314,549.3423 1018.7058,546.2722 C 1019.1802,544.11198 1021.7989,541.64617 1023.6186,541.64617 C 1024.2406,541.64617 1025.4972,542.23436 1026.4112,542.95326 C 1027.3251,543.6722 1028.4213,544.26039 1028.847,544.26039 C 1029.2729,544.26039 1030.3691,543.6722 1031.283,542.95326 C 1032.1969,542.23436 1033.4769,541.64617 1034.1272,541.64617 C 1036.1306,541.64617 1038.6645,544.39904 1039.0835,547.03059 C 1039.4992,549.64138 1039.0814,550.18244 1031.7591,556.51455 C 1029.3541,558.59442 1027.5399,559.24465 1027.5399,558.0268 z M 1033.425,554.00864 C 1035.5179,552.54052 1037.5631,550.53591 1037.9699,549.55394 C 1039.4794,545.90976 1035.7816,541.35676 1032.6489,543.00223 C 1031.8159,543.43972 1030.8994,544.19588 1030.6119,544.68257 C 1030.3244,545.16927 1029.5303,545.56749 1028.847,545.56749 C 1028.1639,545.56749 1027.3698,545.16927 1027.0822,544.68257 C 1026.7948,544.19588 1025.8782,543.43972 1025.0453,543.00223 C 1022.0194,541.41283 1018.3012,545.61625 1019.5087,549.2615 C 1020.1265,551.12658 1026.9752,556.61019 1028.7432,556.65549 C 1029.2253,556.66785 1031.332,555.47675 1033.425,554.00864 z M 1126.8804,558.0268 C 1126.8804,557.69031 1125.1412,556.19502 1123.0156,554.70395 C 1118.7815,551.7338 1117.3719,549.3423 1118.0462,546.2722 C 1118.5207,544.11198 1121.1394,541.64617 1122.9591,541.64617 C 1123.5811,541.64617 1124.8377,542.23436 1125.7518,542.95326 C 1126.6657,543.6722 1127.7618,544.26039 1128.1875,544.26039 C 1128.6134,544.26039 1129.7096,543.6722 1130.6235,542.95326 C 1131.5375,542.23436 1132.8173,541.64617 1133.4678,541.64617 C 1135.4711,541.64617 1138.0051,544.39904 1138.4241,547.03059 C 1138.8398,549.64138 1138.4219,550.18244 1131.0996,556.51455 C 1128.6945,558.59442 1126.8804,559.24465 1126.8804,558.0268 z M 1132.7654,554.00864 C 1134.8584,552.54052 1136.9036,550.53591 1137.3103,549.55394 C 1138.8199,545.90976 1135.1221,541.35676 1131.9894,543.00223 C 1131.1565,543.43972 1130.2398,544.19588 1129.9524,544.68257 C 1129.665,545.16927 1128.8707,545.56749 1128.1875,545.56749 C 1127.5044,545.56749 1126.7102,545.16927 1126.4228,544.68257 C 1126.1353,544.19588 1125.2187,543.43972 1124.3858,543.00223 C 1121.3599,541.41283 1117.6417,545.61625 1118.8492,549.2615 C 1119.4669,551.12658 1126.3156,556.61019 1128.0837,556.65549 C 1128.5658,556.66785 1130.6725,555.47675 1132.7654,554.00864 z M 1207.9213,558.0268 C 1207.9213,557.69031 1206.1822,556.19502 1204.0565,554.70395 C 1199.8224,551.7338 1198.4128,549.3423 1199.0871,546.2722 C 1199.5617,544.11198 1202.1804,541.64617 1204.0001,541.64617 C 1204.622,541.64617 1205.8786,542.23436 1206.7927,542.95326 C 1207.7066,543.6722 1208.8028,544.26039 1209.2284,544.26039 C 1209.6544,544.26039 1210.7505,543.6722 1211.6644,542.95326 C 1212.5784,542.23436 1213.8583,541.64617 1214.5087,541.64617 C 1216.512,541.64617 1219.046,544.39904 1219.465,547.03059 C 1219.8807,549.64138 1219.4628,550.18244 1212.1406,556.51455 C 1209.7354,558.59442 1207.9213,559.24465 1207.9213,558.0268 z M 1213.8063,554.00864 C 1215.8994,552.54052 1217.9445,550.53591 1218.3512,549.55394 C 1219.8608,545.90976 1216.163,541.35676 1213.0303,543.00223 C 1212.1974,543.43972 1211.2808,544.19588 1210.9933,544.68257 C 1210.7059,545.16927 1209.9116,545.56749 1209.2284,545.56749 C 1208.5453,545.56749 1207.7511,545.16927 1207.4637,544.68257 C 1207.1763,544.19588 1206.2596,543.43972 1205.4268,543.00223 C 1202.4009,541.41283 1198.6827,545.61625 1199.8901,549.2615 C 1200.5079,551.12658 1207.3566,556.61019 1209.1247,556.65549 C 1209.6067,556.66785 1211.7135,555.47675 1213.8063,554.00864 z M 469.18597,537.28972 C 468.94602,537.04977 468.74968,519.59954 468.74968,498.51147 C 468.74968,477.4234 468.56546,459.98529 468.34029,459.76012 C 467.94581,459.36564 464.13629,462.25651 460.12138,465.99708 C 458.21174,467.77621 456.33212,468.36425 456.33212,467.18251 C 456.33212,466.84603 454.59296,465.35073 452.46727,463.85966 C 448.23306,460.88955 446.82358,458.49802 447.4979,455.42791 C 447.97235,453.26773 450.59111,450.80188 452.4108,450.80188 C 453.03275,450.80188 454.2894,451.3901 455.20337,452.10901 C 456.1173,452.82792 457.21346,453.41611 457.63925,453.41611 C 458.06504,453.41611 459.16117,452.82792 460.07513,452.10901 C 462.26892,450.38337 463.66863,450.46035 466.01628,452.43579 C 467.08425,453.33442 468.13618,454.06967 468.35388,454.06967 C 468.88025,454.06967 468.86675,366.82807 468.34029,366.30161 C 467.94581,365.90716 464.13629,368.798 460.12138,372.53857 C 458.21174,374.3177 456.33212,374.90574 456.33212,373.72403 C 456.33212,373.38755 454.59296,371.89225 452.46727,370.40118 C 448.23306,367.43104 446.82358,365.03954 447.4979,361.96943 C 447.97235,359.80922 450.59111,357.3434 452.4108,357.3434 C 453.03275,357.3434 454.2894,357.93159 455.20337,358.6505 C 456.1173,359.36944 457.21346,359.95763 457.63925,359.95763 C 458.06504,359.95763 459.16117,359.36944 460.07513,358.6505 C 462.26892,356.92486 463.66863,357.00187 466.01628,358.97728 C 467.08425,359.87591 468.13618,360.61119 468.35388,360.61119 C 468.88028,360.61119 468.86675,262.91269 468.34029,262.38623 C 467.94581,261.99175 464.13629,264.88262 460.12138,268.62318 C 458.21174,270.40232 456.33212,270.99036 456.33212,269.80865 C 456.33212,269.47214 454.59296,267.97687 452.46727,266.48577 C 448.23306,263.51566 446.82358,261.12416 447.4979,258.05402 C 447.97235,255.89384 450.59111,253.42802 452.4108,253.42802 C 453.03275,253.42802 454.2894,254.01621 455.20337,254.73512 C 457.28217,256.37031 457.9963,256.37031 460.07513,254.73512 C 462.26892,253.00948 463.66863,253.08646 466.01628,255.0619 C 467.08425,255.96053 468.13303,256.69578 468.34694,256.69578 C 468.56081,256.69578 468.81246,243.97595 468.90614,228.42949 L 469.07646,200.1632 L 833.7607,200.1632 L 1198.4448,200.1632 L 1198.4448,368.78062 L 1198.4448,537.39803 L 834.03356,537.56202 C 633.60734,537.65222 469.42593,537.52967 469.18597,537.28972 z M 1194.7196,533.67277 C 1195.8616,532.53074 1195.8616,205.0305 1194.7196,203.88846 C 1193.576,202.74486 473.94535,202.74486 472.80172,203.88846 C 471.65972,205.0305 471.65972,532.53074 472.80172,533.67277 C 473.40984,534.28086 554.49624,534.45706 833.7607,534.45706 C 1113.025,534.45706 1194.1114,534.28086 1194.7196,533.67277 z M 462.21717,463.16438 C 468.00249,459.10619 468.85402,455.22753 464.57516,452.42389 C 463.24412,451.55176 462.68538,451.50436 461.44102,452.15795 C 460.60814,452.59543 459.69151,453.35159 459.40406,453.83829 C 459.11661,454.32502 458.32244,454.72324 457.63925,454.72324 C 456.95606,454.72324 456.16189,454.32502 455.87444,453.83829 C 455.58698,453.35159 454.67036,452.59543 453.83747,452.15795 C 450.81153,450.56857 447.09341,454.77199 448.30088,458.41725 C 448.91867,460.28229 455.76728,465.76594 457.53537,465.81123 C 458.01742,465.82357 460.12422,464.6325 462.21717,463.16438 z M 462.21717,369.70587 C 464.31011,368.23776 466.3553,366.23315 466.76206,365.25118 C 468.27152,361.60699 464.57375,357.05399 461.44102,358.69947 C 460.60814,359.13695 459.69151,359.89311 459.40406,360.37981 C 459.11661,360.86651 458.32244,361.26473 457.63925,361.26473 C 456.95606,361.26473 456.16189,360.86651 455.87444,360.37981 C 455.58698,359.89311 454.67036,359.13695 453.83747,358.69947 C 450.81153,357.11006 447.09341,361.31348 448.30088,364.95874 C 448.91867,366.82381 455.76728,372.30743 457.53537,372.35272 C 458.01742,372.36509 460.12422,371.17399 462.21717,369.70587 z M 462.21717,265.79049 C 464.31011,264.32238 466.3553,262.31777 466.76206,261.33577 C 468.27152,257.69161 464.57375,253.13858 461.44102,254.78409 C 460.60814,255.22157 459.69151,255.97773 459.40406,256.46443 C 459.11661,256.95113 458.32244,257.34934 457.63925,257.34934 C 456.95606,257.34934 456.16189,256.95113 455.87444,256.46443 C 455.58698,255.97773 454.67036,255.22157 453.83747,254.78409 C 450.81153,253.19468 447.09341,257.3981 448.30088,261.04336 C 448.91867,262.9084 455.76728,268.39205 457.53537,268.43734 C 458.01742,268.44971 460.12422,267.25861 462.21717,265.79049 z M 1209.8821,467.18251 C 1209.8821,466.84603 1208.1429,465.35073 1206.0171,463.85966 C 1201.783,460.88955 1200.3736,458.49802 1201.0478,455.42791 C 1201.5224,453.26773 1204.141,450.80188 1205.9607,450.80188 C 1206.5828,450.80188 1207.8393,451.3901 1208.7533,452.10901 C 1209.6672,452.82792 1210.7634,453.41611 1211.1891,453.41611 C 1211.615,453.41611 1212.7111,452.82792 1213.625,452.10901 C 1214.5391,451.3901 1215.819,450.80188 1216.4694,450.80188 C 1218.4726,450.80188 1221.0067,453.55478 1221.4257,456.1863 C 1221.8414,458.79713 1221.4235,459.33815 1214.1012,465.67029 C 1211.6961,467.75017 1209.8821,468.40036 1209.8821,467.18251 z M 1215.767,463.16438 C 1221.5525,459.10619 1222.404,455.22753 1218.1251,452.42389 C 1216.7941,451.55176 1216.2353,451.50436 1214.9909,452.15795 C 1214.1581,452.59543 1213.2415,453.35159 1212.954,453.83829 C 1212.6665,454.32502 1211.8723,454.72324 1211.1891,454.72324 C 1210.506,454.72324 1209.7117,454.32502 1209.4244,453.83829 C 1209.137,453.35159 1208.2203,452.59543 1207.3874,452.15795 C 1204.3615,450.56857 1200.6434,454.77199 1201.8508,458.41725 C 1202.4686,460.28229 1209.3172,465.76594 1211.0853,465.81123 C 1211.5673,465.82357 1213.6742,464.6325 1215.767,463.16438 z M 1209.8821,373.72403 C 1209.8821,373.38755 1208.1429,371.89225 1206.0171,370.40118 C 1201.783,367.43104 1200.3736,365.03954 1201.0478,361.96943 C 1201.5224,359.80922 1204.141,357.3434 1205.9607,357.3434 C 1206.5828,357.3434 1207.8393,357.93159 1208.7533,358.6505 C 1209.6672,359.36944 1210.7634,359.95763 1211.1891,359.95763 C 1211.615,359.95763 1212.7111,359.36944 1213.625,358.6505 C 1214.5391,357.93159 1215.819,357.3434 1216.4694,357.3434 C 1218.4726,357.3434 1221.0067,360.09627 1221.4257,362.72782 C 1221.8414,365.33862 1221.4235,365.87967 1214.1012,372.21178 C 1211.6961,374.29169 1209.8821,374.94188 1209.8821,373.72403 z M 1215.767,369.70587 C 1217.8601,368.23776 1219.9052,366.23315 1220.3119,365.25118 C 1221.8215,361.60699 1218.1237,357.05399 1214.9909,358.69947 C 1214.1581,359.13695 1213.2415,359.89311 1212.954,360.37981 C 1212.6665,360.86651 1211.8723,361.26473 1211.1891,361.26473 C 1210.506,361.26473 1209.7117,360.86651 1209.4244,360.37981 C 1209.137,359.89311 1208.2203,359.13695 1207.3874,358.69947 C 1204.3615,357.11006 1200.6434,361.31348 1201.8508,364.95874 C 1202.4686,366.82381 1209.3172,372.30743 1211.0853,372.35272 C 1211.5673,372.36509 1213.6742,371.17399 1215.767,369.70587 z M 1209.8821,269.80865 C 1209.8821,269.47214 1208.1429,267.97687 1206.0171,266.48577 C 1201.783,263.51566 1200.3736,261.12416 1201.0478,258.05402 C 1201.5224,255.89384 1204.141,253.42802 1205.9607,253.42802 C 1206.5828,253.42802 1207.8393,254.01621 1208.7533,254.73512 C 1209.6672,255.45403 1210.7634,256.04222 1211.1891,256.04222 C 1211.615,256.04222 1212.7111,255.45403 1213.625,254.73512 C 1214.5391,254.01621 1215.819,253.42802 1216.4694,253.42802 C 1218.4726,253.42802 1221.0067,256.18089 1221.4257,258.81244 C 1221.8414,261.42324 1221.4235,261.96429 1214.1012,268.2964 C 1211.6961,270.37628 1209.8821,271.02647 1209.8821,269.80865 z M 1215.767,265.79049 C 1217.8601,264.32238 1219.9052,262.31777 1220.3119,261.33577 C 1221.8215,257.69161 1218.1237,253.13858 1214.9909,254.78409 C 1214.1581,255.22157 1213.2415,255.97773 1212.954,256.46443 C 1212.6665,256.95113 1211.8723,257.34934 1211.1891,257.34934 C 1210.506,257.34934 1209.7117,256.95113 1209.4244,256.46443 C 1209.137,255.97773 1208.2203,255.22157 1207.3874,254.78409 C 1204.3615,253.19468 1200.6434,257.3981 1201.8508,261.04336 C 1202.4686,262.9084 1209.3172,268.39205 1211.0853,268.43734 C 1211.5673,268.44971 1213.6742,267.25861 1215.767,265.79049 z M 458.29281,196.61038 C 458.29281,196.2739 456.55362,194.7786 454.42793,193.28753 C 450.19372,190.31739 448.78424,187.92588 449.45856,184.85578 C 449.93302,182.69556 452.55177,180.22975 454.37146,180.22975 C 454.99344,180.22975 456.2501,180.81797 457.16403,181.53688 C 458.07796,182.25579 459.17412,182.84397 459.59991,182.84397 C 460.0257,182.84397 461.12186,182.25579 462.03579,181.53688 C 462.94975,180.81797 464.22967,180.22975 464.88005,180.22975 C 466.88341,180.22975 469.41742,182.98262 469.83642,185.61417 C 470.25208,188.22497 469.83424,188.76602 462.51199,195.09813 C 460.10687,197.17803 458.29281,197.82823 458.29281,196.61038 z M 464.17783,192.59222 C 469.96316,188.53406 470.81471,184.65537 466.53585,181.85175 C 465.20479,180.9796 464.64604,180.93222 463.40168,181.58582 C 462.5688,182.0233 461.65218,182.77946 461.36472,183.26616 C 461.07727,183.75285 460.2831,184.15107 459.59991,184.15107 C 458.91672,184.15107 458.12258,183.75285 457.8351,183.26616 C 457.54764,182.77946 456.63102,182.0233 455.79814,181.58582 C 452.7722,179.99641 449.05407,184.19986 450.26154,187.84508 C 450.87933,189.71016 457.72795,195.19377 459.49603,195.2391 C 459.97808,195.25144 462.08489,194.06034 464.17783,192.59222 z M 541.94796,196.61038 C 541.94796,196.2739 540.20876,194.7786 538.0831,193.28753 C 533.84889,190.31739 532.43942,187.92588 533.11373,184.85578 C 533.58819,182.69556 536.20691,180.22975 538.02663,180.22975 C 538.64858,180.22975 539.90524,180.81797 540.81917,181.53688 C 541.73313,182.25579 542.82929,182.84397 543.25508,182.84397 C 543.68085,182.84397 544.77701,182.25579 545.69097,181.53688 C 546.6049,180.81797 547.88482,180.22975 548.5352,180.22975 C 550.53855,180.22975 553.07259,182.98262 553.49156,185.61417 C 553.90722,188.22497 553.48939,188.76602 546.16714,195.09813 C 543.76204,197.17803 541.94796,197.82823 541.94796,196.61038 z M 547.833,192.59222 C 553.6183,188.53406 554.46985,184.65537 550.19099,181.85175 C 548.85993,180.9796 548.30121,180.93222 547.05686,181.58582 C 546.22397,182.0233 545.30732,182.77946 545.01987,183.26616 C 544.73241,183.75285 543.93824,184.15107 543.25508,184.15107 C 542.57189,184.15107 541.77772,183.75285 541.49027,183.26616 C 541.20282,182.77946 540.28616,182.0233 539.45328,181.58582 C 536.42734,179.99641 532.70921,184.19986 533.91669,187.84508 C 534.5345,189.71016 541.38312,195.19377 543.15118,195.2391 C 543.63322,195.25144 545.74003,194.06034 547.833,192.59222 z M 662.20225,196.61038 C 662.20225,196.2739 660.46306,194.7786 658.33737,193.28753 C 654.10316,190.31739 652.69371,187.92588 653.368,184.85578 C 653.84245,182.69556 656.46121,180.22975 658.2809,180.22975 C 658.90288,180.22975 660.1595,180.81797 661.07347,181.53688 C 661.9874,182.25579 663.08356,182.84397 663.50935,182.84397 C 663.93514,182.84397 665.0313,182.25579 665.94523,181.53688 C 666.85919,180.81797 668.13911,180.22975 668.78949,180.22975 C 670.79285,180.22975 673.32686,182.98262 673.74585,185.61417 C 674.16152,188.22497 673.74368,188.76602 666.42143,195.09813 C 664.01634,197.17803 662.20225,197.82823 662.20225,196.61038 z M 668.08726,192.59222 C 673.87259,188.53406 674.72415,184.65537 670.44529,181.85175 C 669.11422,180.9796 668.55548,180.93222 667.31112,181.58582 C 666.47824,182.0233 665.56161,182.77946 665.27416,183.26616 C 664.98671,183.75285 664.19254,184.15107 663.50935,184.15107 C 662.82616,184.15107 662.03199,183.75285 661.74454,183.26616 C 661.45711,182.77946 660.54046,182.0233 659.70757,181.58582 C 656.68163,179.99641 652.96351,184.19986 654.17098,187.84508 C 654.78877,189.71016 661.63738,195.19377 663.40547,195.2391 C 663.88752,195.25144 665.99432,194.06034 668.08726,192.59222 z M 782.45652,196.61038 C 782.45652,196.2739 780.71735,194.7786 778.59166,193.28753 C 774.35745,190.31739 772.94798,187.92588 773.62229,184.85578 C 774.09675,182.69556 776.7155,180.22975 778.53519,180.22975 C 779.15714,180.22975 780.4138,180.81797 781.32776,181.53688 C 782.24169,182.25579 783.33785,182.84397 783.76364,182.84397 C 784.18944,182.84397 785.2856,182.25579 786.19953,181.53688 C 787.11349,180.81797 788.39338,180.22975 789.04379,180.22975 C 791.04714,180.22975 793.58115,182.98262 794.00012,185.61417 C 794.41581,188.22497 793.99798,188.76602 786.6757,195.09813 C 784.2706,197.17803 782.45652,197.82823 782.45652,196.61038 z M 788.34156,192.59222 C 794.12689,188.53406 794.97841,184.65537 790.69955,181.85175 C 789.36852,180.9796 788.80977,180.93222 787.56542,181.58582 C 786.73253,182.0233 785.81591,182.77946 785.52846,183.26616 C 785.241,183.75285 784.44683,184.15107 783.76364,184.15107 C 783.08045,184.15107 782.28628,183.75285 781.99883,183.26616 C 781.71138,182.77946 780.79475,182.0233 779.96187,181.58582 C 776.93593,179.99641 773.2178,184.19986 774.42528,187.84508 C 775.04306,189.71016 781.89168,195.19377 783.65977,195.2391 C 784.14181,195.25144 786.24862,194.06034 788.34156,192.59222 z M 917.74257,196.61038 C 917.74257,196.2739 916.00337,194.7786 913.87771,193.28753 C 909.6435,190.31739 908.23406,187.92588 908.90841,184.85578 C 909.38277,182.69556 912.00149,180.22975 913.82115,180.22975 C 914.44316,180.22975 915.69988,180.81797 916.61381,181.53688 C 917.52774,182.25579 918.62396,182.84397 919.04963,182.84397 C 919.47549,182.84397 920.57162,182.25579 921.48555,181.53688 C 922.39957,180.81797 923.67949,180.22975 924.32981,180.22975 C 926.33317,180.22975 928.86717,182.98262 929.28614,185.61417 C 929.70183,188.22497 929.284,188.76602 921.96175,195.09813 C 919.55672,197.17803 917.74257,197.82823 917.74257,196.61038 z M 923.62764,192.59222 C 925.72058,191.1241 927.76575,189.11949 928.1725,188.13752 C 929.68194,184.49334 925.98419,179.94034 922.8515,181.58582 C 922.01855,182.0233 921.10199,182.77946 920.81451,183.26616 C 920.52702,183.75285 919.73289,184.15107 919.04963,184.15107 C 918.36647,184.15107 917.57234,183.75285 917.28485,183.26616 C 916.9974,182.77946 916.08081,182.0233 915.24795,181.58582 C 912.22198,179.99641 908.50385,184.19986 909.7113,187.84508 C 910.32917,189.71016 917.17776,195.19377 918.94579,195.2391 C 919.42783,195.25144 921.53467,194.06034 923.62764,192.59222 z M 1027.5399,196.61038 C 1027.5399,196.2739 1025.8007,194.7786 1023.6752,193.28753 C 1019.4409,190.31739 1018.0314,187.92588 1018.7058,184.85578 C 1019.1802,182.69556 1021.7989,180.22975 1023.6186,180.22975 C 1024.2406,180.22975 1025.4972,180.81797 1026.4112,181.53688 C 1027.3251,182.25579 1028.4213,182.84397 1028.847,182.84397 C 1029.2729,182.84397 1030.3691,182.25579 1031.283,181.53688 C 1032.1969,180.81797 1033.4769,180.22975 1034.1272,180.22975 C 1036.1306,180.22975 1038.6645,182.98262 1039.0835,185.61417 C 1039.4992,188.22497 1039.0814,188.76602 1031.7591,195.09813 C 1029.3541,197.17803 1027.5399,197.82823 1027.5399,196.61038 z M 1033.425,192.59222 C 1035.5179,191.1241 1037.5631,189.11949 1037.9699,188.13752 C 1039.4794,184.49334 1035.7816,179.94034 1032.6489,181.58582 C 1031.8159,182.0233 1030.8994,182.77946 1030.6119,183.26616 C 1030.3244,183.75285 1029.5303,184.15107 1028.847,184.15107 C 1028.1639,184.15107 1027.3698,183.75285 1027.0822,183.26616 C 1026.7948,182.77946 1025.8782,182.0233 1025.0453,181.58582 C 1022.0194,179.99641 1018.3012,184.19986 1019.5087,187.84508 C 1020.1265,189.71016 1026.9752,195.19377 1028.7432,195.2391 C 1029.2253,195.25144 1031.332,194.06034 1033.425,192.59222 z M 1126.8804,196.61038 C 1126.8804,196.2739 1125.1412,194.7786 1123.0156,193.28753 C 1118.7815,190.31739 1117.3719,187.92588 1118.0462,184.85578 C 1118.5207,182.69556 1121.1394,180.22975 1122.9591,180.22975 C 1123.5811,180.22975 1124.8377,180.81797 1125.7518,181.53688 C 1126.6657,182.25579 1127.7618,182.84397 1128.1875,182.84397 C 1128.6134,182.84397 1129.7096,182.25579 1130.6235,181.53688 C 1131.5375,180.81797 1132.8173,180.22975 1133.4678,180.22975 C 1135.4711,180.22975 1138.0051,182.98262 1138.4241,185.61417 C 1138.8398,188.22497 1138.4219,188.76602 1131.0996,195.09813 C 1128.6945,197.17803 1126.8804,197.82823 1126.8804,196.61038 z M 1132.7654,192.59222 C 1134.8584,191.1241 1136.9036,189.11949 1137.3103,188.13752 C 1138.8199,184.49334 1135.1221,179.94034 1131.9894,181.58582 C 1131.1565,182.0233 1130.2398,182.77946 1129.9524,183.26616 C 1129.665,183.75285 1128.8707,184.15107 1128.1875,184.15107 C 1127.5044,184.15107 1126.7102,183.75285 1126.4228,183.26616 C 1126.1353,182.77946 1125.2187,182.0233 1124.3858,181.58582 C 1121.3599,179.99641 1117.6417,184.19986 1118.8492,187.84508 C 1119.4669,189.71016 1126.3156,195.19377 1128.0837,195.2391 C 1128.5658,195.25144 1130.6725,194.06034 1132.7654,192.59222 z M 1207.9213,196.61038 C 1207.9213,196.2739 1206.1822,194.7786 1204.0565,193.28753 C 1199.8224,190.31739 1198.4128,187.92588 1199.0871,184.85578 C 1199.5617,182.69556 1202.1804,180.22975 1204.0001,180.22975 C 1204.622,180.22975 1205.8786,180.81797 1206.7927,181.53688 C 1207.7066,182.25579 1208.8028,182.84397 1209.2284,182.84397 C 1209.6544,182.84397 1210.7505,182.25579 1211.6644,181.53688 C 1212.5784,180.81797 1213.8583,180.22975 1214.5087,180.22975 C 1216.512,180.22975 1219.046,182.98262 1219.465,185.61417 C 1219.8807,188.22497 1219.4628,188.76602 1212.1406,195.09813 C 1209.7354,197.17803 1207.9213,197.82823 1207.9213,196.61038 z M 1213.8063,192.59222 C 1219.5917,188.53406 1220.4433,184.65537 1216.1645,181.85175 C 1214.8335,180.9796 1214.2746,180.93222 1213.0303,181.58582 C 1212.1974,182.0233 1211.2808,182.77946 1210.9933,183.26616 C 1210.7059,183.75285 1209.9116,184.15107 1209.2284,184.15107 C 1208.5453,184.15107 1207.7511,183.75285 1207.4637,183.26616 C 1207.1763,182.77946 1206.2596,182.0233 1205.4268,181.58582 C 1202.4009,179.99641 1198.6827,184.19986 1199.8901,187.84508 C 1200.5079,189.71016 1207.3566,195.19377 1209.1247,195.2391 C 1209.6067,195.25144 1211.7135,194.06034 1213.8063,192.59222 z "
         id="path1884" />
    </g>
  </g>
</svg>
